<svg width="20" height="20" viewBox="0 0 20 20" fill="none" xmlns="http://www.w3.org/2000/svg">
<path d="M18.4828 8.65156L18.3945 8.27695H10.2523V11.723H15.1172C14.6121 14.1215 12.2684 15.384 10.3539 15.384C8.96094 15.384 7.49258 14.798 6.5207 13.8562C6.00794 13.3514 5.59979 12.7504 5.31961 12.0876C5.03943 11.4248 4.89272 10.7133 4.88789 9.99375C4.88789 8.54219 5.54023 7.09023 6.48945 6.13516C7.43867 5.18008 8.87227 4.6457 10.2977 4.6457C11.9301 4.6457 13.1 5.5125 13.5375 5.90781L15.9863 3.47187C15.268 2.84062 13.2945 1.25 10.2188 1.25C7.8457 1.25 5.57031 2.15898 3.90703 3.8168C2.26562 5.44922 1.41602 7.80977 1.41602 10C1.41602 12.1902 2.21992 14.4328 3.81055 16.0781C5.51016 17.8328 7.91719 18.75 10.3957 18.75C12.6508 18.75 14.7883 17.8664 16.3117 16.2633C17.8094 14.6852 18.584 12.5016 18.584 10.2125C18.584 9.24883 18.4871 8.67656 18.4828 8.65156Z" fill="black"/>
</svg>
