<svg width="21" height="20" viewBox="0 0 21 20" fill="none" xmlns="http://www.w3.org/2000/svg">
<path d="M5.92068 0H14.4019C17.6329 0 20.258 2.6 20.258 5.8V14.2C20.258 15.7383 19.641 17.2135 18.5428 18.3012C17.4446 19.3889 15.9551 20 14.4019 20H5.92068C2.68972 20 0.0645752 17.4 0.0645752 14.2V5.8C0.0645752 4.26174 0.681556 2.78649 1.77979 1.69878C2.87802 0.61107 4.36754 0 5.92068 0ZM5.71874 2C4.75473 2 3.8302 2.37928 3.14853 3.05442C2.46687 3.72955 2.08392 4.64522 2.08392 5.6V14.4C2.08392 16.39 3.70949 18 5.71874 18H14.6039C15.5679 18 16.4924 17.6207 17.1741 16.9456C17.8557 16.2705 18.2387 15.3548 18.2387 14.4V5.6C18.2387 3.61 16.6131 2 14.6039 2H5.71874ZM15.4621 3.5C15.7968 3.5 16.1178 3.6317 16.3545 3.86612C16.5912 4.10054 16.7242 4.41848 16.7242 4.75C16.7242 5.08152 16.5912 5.39946 16.3545 5.63388C16.1178 5.8683 15.7968 6 15.4621 6C15.1274 6 14.8063 5.8683 14.5696 5.63388C14.333 5.39946 14.2 5.08152 14.2 4.75C14.2 4.41848 14.333 4.10054 14.5696 3.86612C14.8063 3.6317 15.1274 3.5 15.4621 3.5ZM10.1613 5C11.5002 5 12.7843 5.52678 13.731 6.46447C14.6778 7.40215 15.2097 8.67392 15.2097 10C15.2097 11.3261 14.6778 12.5979 13.731 13.5355C12.7843 14.4732 11.5002 15 10.1613 15C8.82239 15 7.53832 14.4732 6.59157 13.5355C5.64482 12.5979 5.11294 11.3261 5.11294 10C5.11294 8.67392 5.64482 7.40215 6.59157 6.46447C7.53832 5.52678 8.82239 5 10.1613 5ZM10.1613 7C9.35795 7 8.58751 7.31607 8.01946 7.87868C7.45141 8.44129 7.13228 9.20435 7.13228 10C7.13228 10.7956 7.45141 11.5587 8.01946 12.1213C8.58751 12.6839 9.35795 13 10.1613 13C10.9646 13 11.7351 12.6839 12.3031 12.1213C12.8712 11.5587 13.1903 10.7956 13.1903 10C13.1903 9.20435 12.8712 8.44129 12.3031 7.87868C11.7351 7.31607 10.9646 7 10.1613 7Z" fill="white"/>
</svg>
