<svg width="329" height="213" viewBox="0 0 329 213" fill="none" xmlns="http://www.w3.org/2000/svg">
<g filter="url(#filter0_f_113_65)">
<ellipse cx="27.0793" cy="36.4723" rx="27.0793" ry="36.4723" transform="matrix(0.971255 0.23804 -0.293179 0.956058 113.784 81.3688)" fill="#72148C" fill-opacity="0.6"/>
</g>
<g filter="url(#filter1_f_113_65)">
<path d="M116.733 86H122.423L138.424 115.945C139.562 117.941 140.795 122.183 141.269 124.055C143.829 145.017 125.979 152.752 116.733 154H106.421C105.283 154 104.762 152.96 104.643 152.44V140.275C104.359 139.527 105.71 139.131 106.421 139.028C121.498 139.776 124.556 131.021 124.201 126.55L110.333 101.908V98.4771L116.733 86Z" fill="white"/>
<path d="M116.733 86H122.423L138.424 115.945C139.562 117.941 140.795 122.183 141.269 124.055C143.829 145.017 125.979 152.752 116.733 154H106.421C105.283 154 104.762 152.96 104.643 152.44V140.275C104.359 139.527 105.71 139.131 106.421 139.028C121.498 139.776 124.556 131.021 124.201 126.55L110.333 101.908V98.4771L116.733 86Z" stroke="#72148C" stroke-width="3"/>
</g>
<g filter="url(#filter2_d_113_65)">
<path d="M116.733 85H122.423L138.424 114.945C139.562 116.941 140.795 121.183 141.269 123.055C143.829 144.017 125.979 151.752 116.733 153H106.421C105.283 153 104.762 151.96 104.643 151.44V139.275C104.359 138.527 105.71 138.131 106.421 138.028C121.498 138.776 124.556 130.021 124.201 125.55L110.333 100.908V97.4771L116.733 85Z" fill="black"/>
<path d="M116.733 85H122.423L138.424 114.945C139.562 116.941 140.795 121.183 141.269 123.055C143.829 144.017 125.979 151.752 116.733 153H106.421C105.283 153 104.762 151.96 104.643 151.44V139.275C104.359 138.527 105.71 138.131 106.421 138.028C121.498 138.776 124.556 130.021 124.201 125.55L110.333 100.908V97.4771L116.733 85Z" stroke="#72148C"/>
</g>
<g filter="url(#filter3_f_113_65)">
<ellipse cx="17.6543" cy="48.7912" rx="17.6543" ry="48.7912" transform="matrix(0.930007 0.367542 -0.443253 0.896396 87.0349 48.6043)" fill="#D9184B" fill-opacity="0.62"/>
</g>
<g filter="url(#filter4_f_113_65)">
<path d="M102.755 57H108.013L114.672 67.9623V71.4075L95.0446 111.185H106.611L108.714 112.438L113.971 122.46V125.906L111.868 126.845H86.9834L85.932 128.098L80.3242 139.06L78.5717 140H63.5008L62.0988 139.06V135.302L102.755 57Z" fill="white"/>
<path d="M102.755 57H108.013L114.672 67.9623V71.4075L95.0446 111.185H106.611L108.714 112.438L113.971 122.46V125.906L111.868 126.845H86.9834L85.932 128.098L80.3242 139.06L78.5717 140H63.5008L62.0988 139.06V135.302L102.755 57Z" stroke="#D9184B" stroke-width="3"/>
</g>
<g filter="url(#filter5_d_113_65)">
<path d="M102.755 57H108.013L114.672 67.9623V71.4075L95.0446 111.185H106.611L108.714 112.438L113.971 122.46V125.906L111.868 126.845H86.9834L85.932 128.098L80.3242 139.06L78.5717 140H63.5008L62.0988 139.06V135.302L102.755 57Z" fill="black"/>
<path d="M102.755 57H108.013L114.672 67.9623V71.4075L95.0446 111.185H106.611L108.714 112.438L113.971 122.46V125.906L111.868 126.845H86.9834L85.932 128.098L80.3242 139.06L78.5717 140H63.5008L62.0988 139.06V135.302L102.755 57Z" stroke="#D9184B"/>
</g>
<path d="M171.91 133.23L174.844 125.76V125.4H175.924C176.464 125.4 177.286 125.37 178.39 125.31C178.426 125.538 178.414 125.748 178.354 125.94C177.694 126.048 177.214 126.168 176.914 126.3L177.814 137.1L179.2 137.46C179.236 137.688 179.206 137.898 179.11 138.09C178.03 138.03 177.298 138 176.914 138C176.386 138 175.564 138.03 174.448 138.09C174.412 137.85 174.424 137.64 174.484 137.46C175.276 137.352 175.756 137.232 175.924 137.1L175.168 129.216C175.144 128.988 175.132 128.652 175.132 128.208C175.132 127.836 175.138 127.56 175.15 127.38H175.096C174.904 128.1 174.712 128.712 174.52 129.216L171.262 137.442C171.022 137.574 170.806 137.634 170.614 137.622L167.068 129.216C166.912 128.844 166.714 128.232 166.474 127.38H166.42L166.366 129.234L165.916 137.118L167.302 137.478C167.338 137.706 167.308 137.916 167.212 138.108C167.068 138.096 166.87 138.078 166.618 138.054C166.366 138.042 166.132 138.03 165.916 138.018C165.712 138.006 165.514 138 165.322 138C164.914 138 164.272 138.03 163.396 138.09C163.36 137.862 163.372 137.652 163.432 137.46C163.96 137.388 164.428 137.268 164.836 137.1L165.556 126.3L164.17 125.94C164.134 125.712 164.164 125.502 164.26 125.31C165.34 125.37 166.072 125.4 166.456 125.4H167.626V125.76L170.56 133.23C170.776 133.734 170.992 134.442 171.208 135.354H171.244C171.46 134.526 171.682 133.818 171.91 133.23ZM191.079 126.3V133.05C191.079 134.118 190.983 134.982 190.791 135.642C190.611 136.302 190.341 136.83 189.981 137.226C189.621 137.622 189.153 137.91 188.577 138.09C188.001 138.27 187.281 138.36 186.417 138.36C185.553 138.36 184.815 138.282 184.203 138.126C183.591 137.982 183.069 137.724 182.637 137.352C182.217 136.968 181.899 136.446 181.683 135.786C181.467 135.114 181.359 134.262 181.359 133.23V126.3L179.973 125.94C179.937 125.712 179.967 125.502 180.063 125.31C181.143 125.37 181.875 125.4 182.259 125.4C182.799 125.4 183.621 125.37 184.725 125.31C184.761 125.538 184.749 125.748 184.689 125.94C184.065 126.024 183.585 126.144 183.249 126.3V133.77C183.237 136.242 184.443 137.472 186.867 137.46C187.323 137.46 187.719 137.406 188.055 137.298C188.403 137.19 188.697 137.034 188.937 136.83C189.189 136.614 189.375 136.386 189.495 136.146C189.627 135.906 189.729 135.666 189.801 135.426C189.885 135.174 189.951 134.856 189.999 134.472C190.047 134.076 190.071 133.752 190.071 133.5C190.083 133.248 190.089 132.918 190.089 132.51V126.3L188.703 125.94C188.667 125.712 188.697 125.502 188.793 125.31C189.633 125.37 190.245 125.4 190.629 125.4C191.037 125.4 191.679 125.37 192.555 125.31C192.591 125.55 192.579 125.76 192.519 125.94C191.835 126.036 191.355 126.156 191.079 126.3ZM197.58 138.342C195.96 138.342 194.706 138.132 193.818 137.712C193.818 136.644 193.974 135.6 194.286 134.58C194.31 134.58 194.346 134.58 194.394 134.58C194.442 134.568 194.484 134.562 194.52 134.562C194.736 134.562 194.922 134.598 195.078 134.67L195.366 137.064C196.122 137.244 196.77 137.334 197.31 137.334C197.73 137.334 198.162 137.286 198.606 137.19C199.05 137.094 199.434 136.896 199.758 136.596C200.094 136.296 200.262 135.888 200.262 135.372C200.262 134.904 200.19 134.526 200.046 134.238C199.914 133.95 199.596 133.638 199.092 133.302C198.6 132.954 197.826 132.552 196.77 132.096C195.69 131.616 194.928 131.106 194.484 130.566C194.052 130.014 193.848 129.276 193.872 128.352C193.884 127.296 194.328 126.492 195.204 125.94C196.08 125.388 197.178 125.112 198.498 125.112C199.614 125.112 200.634 125.292 201.558 125.652C201.594 126.564 201.408 127.578 201 128.694C200.952 128.706 200.874 128.712 200.766 128.712C200.562 128.712 200.376 128.676 200.208 128.604L200.01 126.21C199.47 126.054 198.93 125.976 198.39 125.976C197.598 125.976 196.932 126.15 196.392 126.498C195.864 126.834 195.594 127.35 195.582 128.046C195.57 128.598 195.726 129.048 196.05 129.396C196.386 129.744 197.088 130.158 198.156 130.638C198.936 130.986 199.542 131.28 199.974 131.52C200.406 131.748 200.796 132.024 201.144 132.348C201.504 132.66 201.762 133.02 201.918 133.428C202.074 133.836 202.152 134.316 202.152 134.868C202.128 135.984 201.666 136.842 200.766 137.442C199.866 138.042 198.804 138.342 197.58 138.342ZM206.758 126.3V137.1L208.144 137.46C208.18 137.688 208.15 137.898 208.054 138.09C206.974 138.03 206.242 138 205.858 138C205.33 138 204.508 138.03 203.392 138.09C203.356 137.838 203.368 137.628 203.428 137.46C204.088 137.376 204.568 137.256 204.868 137.1V126.3L203.482 125.94C203.446 125.712 203.476 125.502 203.572 125.31C204.652 125.37 205.384 125.4 205.768 125.4C206.308 125.4 207.13 125.37 208.234 125.31C208.27 125.55 208.258 125.76 208.198 125.94C207.574 126.048 207.094 126.168 206.758 126.3ZM219.359 136.038C219.611 136.11 219.749 136.308 219.773 136.632C218.597 137.784 217.229 138.36 215.669 138.36C214.853 138.36 214.073 138.228 213.329 137.964C212.597 137.688 211.943 137.286 211.367 136.758C210.803 136.23 210.347 135.534 209.999 134.67C209.663 133.794 209.495 132.804 209.495 131.7C209.495 130.608 209.681 129.63 210.053 128.766C210.437 127.89 210.941 127.182 211.565 126.642C212.201 126.102 212.879 125.7 213.599 125.436C214.331 125.172 215.081 125.04 215.849 125.04C217.529 125.04 218.861 125.31 219.845 125.85C219.893 126.702 219.707 127.686 219.287 128.802C218.987 128.85 218.723 128.82 218.495 128.712L218.297 126.39C217.649 126.114 216.875 125.982 215.975 125.994C214.727 125.994 213.683 126.546 212.843 127.65C212.003 128.742 211.583 130.092 211.583 131.7C211.583 133.44 211.949 134.826 212.681 135.858C213.425 136.89 214.487 137.406 215.867 137.406C217.115 137.406 218.279 136.95 219.359 136.038ZM232.459 133.68H228.283L227.113 137.1L228.499 137.46C228.535 137.688 228.505 137.898 228.409 138.09C227.329 138.03 226.597 138 226.213 138C226.009 138 225.811 138.006 225.619 138.018C225.427 138.03 225.241 138.042 225.061 138.054C224.881 138.066 224.713 138.078 224.557 138.09C224.521 137.862 224.533 137.652 224.593 137.46C225.133 137.388 225.595 137.268 225.979 137.1L230.245 125.058C230.425 124.962 230.659 124.914 230.947 124.914L235.825 137.1L237.211 137.46C237.247 137.688 237.217 137.898 237.121 138.09C236.041 138.03 235.309 138 234.925 138C234.301 138 233.431 138.03 232.315 138.09C232.279 137.862 232.291 137.652 232.351 137.46C232.915 137.388 233.395 137.268 233.791 137.1L232.459 133.68ZM230.281 127.56H230.245C229.873 128.892 229.609 129.78 229.453 130.224L228.607 132.69H232.063L231.073 130.134C230.689 129.246 230.425 128.388 230.281 127.56ZM247.554 126.3L246.168 125.94C246.132 125.712 246.162 125.502 246.258 125.31C247.038 125.37 247.638 125.4 248.058 125.4C248.514 125.4 249.174 125.37 250.038 125.31C250.074 125.538 250.062 125.748 250.002 125.94C249.378 126.048 248.898 126.168 248.562 126.3V138.36C248.43 138.444 248.31 138.504 248.202 138.54L241.038 129.45C240.798 129.162 240.444 128.592 239.976 127.74H239.922C239.982 128.112 240.012 128.7 240.012 129.504V137.1L241.398 137.478C241.434 137.706 241.404 137.916 241.308 138.108C241.164 138.096 240.966 138.078 240.714 138.054C240.462 138.042 240.228 138.03 240.012 138.018C239.808 138.006 239.61 138 239.418 138C239.298 138 238.686 138.03 237.582 138.09C237.546 137.862 237.558 137.652 237.618 137.46C238.074 137.388 238.542 137.268 239.022 137.1V126.3L237.636 125.94C237.6 125.712 237.63 125.502 237.726 125.31C238.806 125.37 239.538 125.4 239.922 125.4H240.642L241.092 126.336L246.654 133.482C246.942 133.854 247.266 134.442 247.626 135.246H247.68C247.656 134.958 247.638 134.742 247.626 134.598C247.614 134.454 247.602 134.292 247.59 134.112C247.578 133.932 247.572 133.734 247.572 133.518L247.554 126.3ZM255.903 138.126L253.653 138C253.125 138 252.303 138.03 251.187 138.09C251.151 137.862 251.163 137.652 251.223 137.46C251.763 137.388 252.243 137.268 252.663 137.1V126.3L251.277 125.94C251.241 125.712 251.271 125.502 251.367 125.31C252.447 125.37 253.179 125.4 253.563 125.4L255.903 125.328C258.267 125.328 260.043 125.874 261.231 126.966C262.419 128.058 263.013 129.576 263.013 131.52C263.013 132.708 262.815 133.74 262.419 134.616C262.035 135.48 261.501 136.17 260.817 136.686C260.145 137.19 259.395 137.556 258.567 137.784C257.751 138.012 256.863 138.126 255.903 138.126ZM254.553 137.19C254.961 137.226 255.357 137.244 255.741 137.244C257.649 137.244 259.005 136.794 259.809 135.894C260.613 134.982 261.015 133.524 261.015 131.52C261.015 129.708 260.583 128.364 259.719 127.488C258.867 126.612 257.451 126.174 255.471 126.174C255.291 126.174 254.985 126.186 254.553 126.21V137.19ZM277.027 133.23L279.961 125.76V125.4H281.041C281.581 125.4 282.403 125.37 283.507 125.31C283.543 125.538 283.531 125.748 283.471 125.94C282.811 126.048 282.331 126.168 282.031 126.3L282.931 137.1L284.317 137.46C284.353 137.688 284.323 137.898 284.227 138.09C283.147 138.03 282.415 138 282.031 138C281.503 138 280.681 138.03 279.565 138.09C279.529 137.85 279.541 137.64 279.601 137.46C280.393 137.352 280.873 137.232 281.041 137.1L280.285 129.216C280.261 128.988 280.249 128.652 280.249 128.208C280.249 127.836 280.255 127.56 280.267 127.38H280.213C280.021 128.1 279.829 128.712 279.637 129.216L276.379 137.442C276.139 137.574 275.923 137.634 275.731 137.622L272.185 129.216C272.029 128.844 271.831 128.232 271.591 127.38H271.537L271.483 129.234L271.033 137.118L272.419 137.478C272.455 137.706 272.425 137.916 272.329 138.108C272.185 138.096 271.987 138.078 271.735 138.054C271.483 138.042 271.249 138.03 271.033 138.018C270.829 138.006 270.631 138 270.439 138C270.031 138 269.389 138.03 268.513 138.09C268.477 137.862 268.489 137.652 268.549 137.46C269.077 137.388 269.545 137.268 269.953 137.1L270.673 126.3L269.287 125.94C269.251 125.712 269.281 125.502 269.377 125.31C270.457 125.37 271.189 125.4 271.573 125.4H272.743V125.76L275.677 133.23C275.893 133.734 276.109 134.442 276.325 135.354H276.361C276.577 134.526 276.799 133.818 277.027 133.23ZM285.274 131.682C285.274 129.69 285.832 128.088 286.948 126.876C288.064 125.652 289.492 125.04 291.232 125.04C293.008 125.04 294.454 125.658 295.57 126.894C296.686 128.118 297.244 129.714 297.244 131.682C297.244 133.686 296.692 135.3 295.588 136.524C294.484 137.748 293.032 138.36 291.232 138.36C289.42 138.36 287.974 137.748 286.894 136.524C285.814 135.3 285.274 133.686 285.274 131.682ZM295.174 131.556C295.174 130.584 295.024 129.678 294.724 128.838C294.436 127.986 293.98 127.278 293.356 126.714C292.732 126.15 292.006 125.868 291.178 125.868C290.506 125.868 289.918 126.036 289.414 126.372C288.91 126.696 288.508 127.146 288.208 127.722C287.92 128.286 287.704 128.916 287.56 129.612C287.416 130.296 287.344 131.04 287.344 131.844C287.344 133.464 287.71 134.82 288.442 135.912C289.186 136.992 290.182 137.532 291.43 137.532C292.654 137.532 293.584 136.968 294.22 135.84C294.856 134.7 295.174 133.272 295.174 131.556ZM301.909 132.33V137.1L303.295 137.46C303.331 137.688 303.301 137.898 303.205 138.09C302.125 138.03 301.393 138 301.009 138C300.481 138 299.659 138.03 298.543 138.09C298.507 137.862 298.519 137.652 298.579 137.46C299.107 137.4 299.587 137.28 300.019 137.1V126.3L298.633 125.94C298.597 125.712 298.627 125.502 298.723 125.31C299.731 125.382 300.583 125.412 301.279 125.4L302.971 125.292C304.483 125.208 305.701 125.478 306.625 126.102C307.549 126.714 308.011 127.608 308.011 128.784C308.011 130.344 307.189 131.4 305.545 131.952V132.024C305.677 132.108 305.809 132.3 305.941 132.6C306.937 134.844 307.537 136.128 307.741 136.452C308.041 136.992 308.371 137.304 308.731 137.388C308.875 137.424 309.043 137.442 309.235 137.442L309.451 137.424C309.547 137.568 309.583 137.76 309.559 138C309.415 138.168 309.019 138.258 308.371 138.27C307.579 138.27 306.925 137.958 306.409 137.334C306.205 137.094 306.007 136.77 305.815 136.362C305.623 135.942 305.365 135.348 305.041 134.58C304.729 133.812 304.387 133.056 304.015 132.312C303.619 132.348 303.217 132.366 302.809 132.366C302.593 132.366 302.293 132.354 301.909 132.33ZM306.247 128.892C306.247 128.016 305.959 127.338 305.383 126.858C304.819 126.366 304.099 126.12 303.223 126.12C302.839 126.12 302.401 126.186 301.909 126.318V131.502C302.257 131.586 302.617 131.628 302.989 131.628C304.021 131.628 304.819 131.388 305.383 130.908C305.959 130.416 306.247 129.744 306.247 128.892ZM316.999 132.06H313.651V137.19H318.871L319.249 134.796C319.489 134.748 319.699 134.766 319.879 134.85C320.047 135.558 320.119 136.608 320.095 138H312.751C312.271 138 311.473 138.03 310.357 138.09C310.321 137.862 310.333 137.652 310.393 137.46C311.017 137.34 311.473 137.22 311.761 137.1V126.3L310.375 125.94C310.339 125.712 310.369 125.502 310.465 125.31C311.545 125.37 312.277 125.4 312.661 125.4H319.591C319.615 126.624 319.549 127.674 319.393 128.55C319.213 128.622 318.997 128.64 318.745 128.604L318.277 126.21H313.651V131.07H316.999L317.341 129.486C317.617 129.402 317.857 129.432 318.061 129.576C318.013 130.044 317.989 130.686 317.989 131.502C317.989 132.402 318.013 133.11 318.061 133.626C317.845 133.71 317.605 133.722 317.341 133.662L316.999 132.06Z" fill="white"/>
<path d="M178.68 95.64C179.24 95.8 179.547 96.24 179.6 96.96C176.987 99.52 173.947 100.8 170.48 100.8C168.667 100.8 166.933 100.507 165.28 99.92C163.653 99.3067 162.2 98.4133 160.92 97.24C159.667 96.0667 158.653 94.52 157.88 92.6C157.133 90.6533 156.76 88.4533 156.76 86C156.76 83.5733 157.173 81.4 158 79.48C158.853 77.5333 159.973 75.96 161.36 74.76C162.773 73.56 164.28 72.6667 165.88 72.08C167.507 71.4933 169.173 71.2 170.88 71.2C174.613 71.2 177.573 71.8 179.76 73C179.867 74.8933 179.453 77.08 178.52 79.56C177.853 79.6667 177.267 79.6 176.76 79.36L176.32 74.2C174.88 73.5867 173.16 73.2933 171.16 73.32C168.387 73.32 166.067 74.5467 164.2 77C162.333 79.4267 161.4 82.4267 161.4 86C161.4 89.8667 162.213 92.9467 163.84 95.24C165.493 97.5333 167.853 98.68 170.92 98.68C173.693 98.68 176.28 97.6667 178.68 95.64ZM197.987 90.4H188.707L186.107 98L189.187 98.8C189.267 99.3067 189.2 99.7733 188.987 100.2C186.587 100.067 184.96 100 184.107 100C183.654 100 183.214 100.013 182.787 100.04C182.36 100.067 181.947 100.093 181.547 100.12C181.147 100.147 180.774 100.173 180.427 100.2C180.347 99.6933 180.374 99.2267 180.507 98.8C181.707 98.64 182.734 98.3733 183.587 98L193.067 71.24C193.467 71.0267 193.987 70.92 194.627 70.92L205.467 98L208.547 98.8C208.627 99.3067 208.56 99.7733 208.347 100.2C205.947 100.067 204.32 100 203.467 100C202.08 100 200.147 100.067 197.667 100.2C197.587 99.6933 197.614 99.2267 197.747 98.8C199 98.64 200.067 98.3733 200.947 98L197.987 90.4ZM193.147 76.8H193.067C192.24 79.76 191.654 81.7333 191.307 82.72L189.427 88.2H197.107L194.907 82.52C194.054 80.5467 193.467 78.64 193.147 76.8ZM218.971 88.84C218.464 88.84 217.744 88.8 216.811 88.72V98L220.691 98.8C220.771 99.3067 220.704 99.7733 220.491 100.2C218.091 100.067 216.197 100 214.811 100C213.637 100 211.811 100.067 209.331 100.2C209.251 99.6933 209.277 99.2267 209.411 98.8C210.877 98.6133 211.944 98.3467 212.611 98V74L209.531 73.2C209.451 72.6933 209.517 72.2267 209.731 71.8C212.131 71.9333 213.757 72 214.611 72C215.491 72 216.517 71.9467 217.691 71.84C218.864 71.7067 219.637 71.64 220.011 71.64C223.317 71.64 225.904 72.3733 227.771 73.84C229.664 75.3067 230.611 77.3333 230.611 79.92C230.611 81.4933 230.277 82.8667 229.611 84.04C228.944 85.2133 228.037 86.1467 226.891 86.84C225.771 87.5333 224.544 88.04 223.211 88.36C221.877 88.68 220.464 88.84 218.971 88.84ZM219.731 73.44C218.797 73.44 217.824 73.56 216.811 73.8V86.76C217.664 86.92 218.491 87 219.291 87C221.451 87 223.157 86.4267 224.411 85.28C225.691 84.1067 226.331 82.4 226.331 80.16C226.331 78.1333 225.704 76.5067 224.451 75.28C223.197 74.0533 221.624 73.44 219.731 73.44ZM247.61 86.8H240.17V98.2H251.77L252.61 92.88C253.143 92.7733 253.61 92.8133 254.01 93C254.383 94.5733 254.543 96.9067 254.49 100H238.17C237.103 100 235.33 100.067 232.85 100.2C232.77 99.6933 232.797 99.2267 232.93 98.8C234.317 98.5333 235.33 98.2667 235.97 98V74L232.89 73.2C232.81 72.6933 232.877 72.2267 233.09 71.8C235.49 71.9333 237.117 72 237.97 72H253.37C253.423 74.72 253.277 77.0533 252.93 79C252.53 79.16 252.05 79.2 251.49 79.12L250.45 73.8H240.17V84.6H247.61L248.37 81.08C248.983 80.8933 249.517 80.96 249.97 81.28C249.863 82.32 249.81 83.7467 249.81 85.56C249.81 87.56 249.863 89.1333 249.97 90.28C249.49 90.4667 248.957 90.4933 248.37 90.36L247.61 86.8ZM265.17 97.8H274.77L275.85 92.88C276.41 92.7733 276.89 92.8133 277.29 93C277.557 94.9467 277.69 97.28 277.69 100H263.17C262.103 100 260.33 100.067 257.85 100.2C257.77 99.6933 257.797 99.2267 257.93 98.8C259.477 98.5067 260.49 98.24 260.97 98V74L257.89 73.2C257.81 72.6933 257.877 72.2267 258.09 71.8C260.49 71.9333 262.117 72 262.97 72C264.17 72 265.997 71.9333 268.45 71.8C268.53 72.3067 268.503 72.7733 268.37 73.2C266.957 73.3333 265.89 73.6 265.17 74V97.8ZM287.084 97.8H296.684L297.764 92.88C298.324 92.7733 298.804 92.8133 299.204 93C299.471 94.9467 299.604 97.28 299.604 100H285.084C284.017 100 282.244 100.067 279.764 100.2C279.684 99.6933 279.711 99.2267 279.844 98.8C281.391 98.5067 282.404 98.24 282.884 98V74L279.804 73.2C279.724 72.6933 279.791 72.2267 280.004 71.8C282.404 71.9333 284.031 72 284.884 72C286.084 72 287.911 71.9333 290.364 71.8C290.444 72.3067 290.417 72.7733 290.284 73.2C288.871 73.3333 287.804 73.6 287.084 74V97.8ZM317.518 90.4H308.238L305.638 98L308.718 98.8C308.798 99.3067 308.731 99.7733 308.518 100.2C306.118 100.067 304.491 100 303.638 100C303.185 100 302.745 100.013 302.318 100.04C301.891 100.067 301.478 100.093 301.078 100.12C300.678 100.147 300.305 100.173 299.958 100.2C299.878 99.6933 299.905 99.2267 300.038 98.8C301.238 98.64 302.265 98.3733 303.118 98L312.598 71.24C312.998 71.0267 313.518 70.92 314.158 70.92L324.998 98L328.078 98.8C328.158 99.3067 328.091 99.7733 327.878 100.2C325.478 100.067 323.851 100 322.998 100C321.611 100 319.678 100.067 317.198 100.2C317.118 99.6933 317.145 99.2267 317.278 98.8C318.531 98.64 319.598 98.3733 320.478 98L317.518 90.4ZM312.678 76.8H312.598C311.771 79.76 311.185 81.7333 310.838 82.72L308.958 88.2H316.638L314.438 82.52C313.585 80.5467 312.998 78.64 312.678 76.8Z" fill="white"/>
<defs>
<filter id="filter0_f_113_65" x="46.9931" y="33.2177" width="164.798" height="178.933" filterUnits="userSpaceOnUse" color-interpolation-filters="sRGB">
<feFlood flood-opacity="0" result="BackgroundImageFix"/>
<feBlend mode="normal" in="SourceGraphic" in2="BackgroundImageFix" result="shape"/>
<feGaussianBlur stdDeviation="27" result="effect1_foregroundBlur_113_65"/>
</filter>
<filter id="filter1_f_113_65" x="83.1044" y="64.5" width="79.9133" height="111" filterUnits="userSpaceOnUse" color-interpolation-filters="sRGB">
<feFlood flood-opacity="0" result="BackgroundImageFix"/>
<feBlend mode="normal" in="SourceGraphic" in2="BackgroundImageFix" result="shape"/>
<feGaussianBlur stdDeviation="10" result="effect1_foregroundBlur_113_65"/>
</filter>
<filter id="filter2_d_113_65" x="100.105" y="80.5" width="45.9131" height="77" filterUnits="userSpaceOnUse" color-interpolation-filters="sRGB">
<feFlood flood-opacity="0" result="BackgroundImageFix"/>
<feColorMatrix in="SourceAlpha" type="matrix" values="0 0 0 0 0 0 0 0 0 0 0 0 0 0 0 0 0 0 127 0" result="hardAlpha"/>
<feOffset/>
<feGaussianBlur stdDeviation="2"/>
<feComposite in2="hardAlpha" operator="out"/>
<feColorMatrix type="matrix" values="0 0 0 0 0.447059 0 0 0 0 0.0784314 0 0 0 0 0.54902 0 0 0 1 0"/>
<feBlend mode="normal" in2="BackgroundImageFix" result="effect1_dropShadow_113_65"/>
<feBlend mode="normal" in="SourceGraphic" in2="effect1_dropShadow_113_65" result="shape"/>
</filter>
<filter id="filter3_f_113_65" x="0.672028" y="0.608368" width="162.309" height="196.442" filterUnits="userSpaceOnUse" color-interpolation-filters="sRGB">
<feFlood flood-opacity="0" result="BackgroundImageFix"/>
<feBlend mode="normal" in="SourceGraphic" in2="BackgroundImageFix" result="shape"/>
<feGaussianBlur stdDeviation="27" result="effect1_foregroundBlur_113_65"/>
</filter>
<filter id="filter4_f_113_65" x="40.5988" y="35.5" width="95.5731" height="126" filterUnits="userSpaceOnUse" color-interpolation-filters="sRGB">
<feFlood flood-opacity="0" result="BackgroundImageFix"/>
<feBlend mode="normal" in="SourceGraphic" in2="BackgroundImageFix" result="shape"/>
<feGaussianBlur stdDeviation="10" result="effect1_foregroundBlur_113_65"/>
</filter>
<filter id="filter5_d_113_65" x="57.5988" y="52.5" width="61.5731" height="92" filterUnits="userSpaceOnUse" color-interpolation-filters="sRGB">
<feFlood flood-opacity="0" result="BackgroundImageFix"/>
<feColorMatrix in="SourceAlpha" type="matrix" values="0 0 0 0 0 0 0 0 0 0 0 0 0 0 0 0 0 0 127 0" result="hardAlpha"/>
<feOffset/>
<feGaussianBlur stdDeviation="2"/>
<feComposite in2="hardAlpha" operator="out"/>
<feColorMatrix type="matrix" values="0 0 0 0 0.85098 0 0 0 0 0.0941176 0 0 0 0 0.294118 0 0 0 1 0"/>
<feBlend mode="normal" in2="BackgroundImageFix" result="effect1_dropShadow_113_65"/>
<feBlend mode="normal" in="SourceGraphic" in2="effect1_dropShadow_113_65" result="shape"/>
</filter>
</defs>
</svg>
