<svg width="523" height="452" viewBox="0 0 523 452" fill="none" xmlns="http://www.w3.org/2000/svg">
<path fill-rule="evenodd" clip-rule="evenodd" d="M301.691 127.128C305.994 131.465 313.006 131.465 317.309 127.128L425.57 17.997C431.417 12.1029 428.755 2.70394 421.833 0H512.391C521.7 0 525.959 11.6023 518.861 17.625L314.085 191.381C310.132 194.735 304.315 194.44 300.162 191.338C289.156 183.117 275.499 178.25 260.706 178.25C246.113 178.25 232.627 182.986 221.7 191.004C217.551 194.049 211.783 194.314 207.859 190.985L3.55006 17.625C-3.54788 11.6023 0.711239 0 10.02 0H197.167C190.245 2.70394 187.583 12.1029 193.43 17.9969L301.691 127.128Z" fill="white"/>
<path fill-rule="evenodd" clip-rule="evenodd" d="M296.691 265.878C300.973 262.675 307.013 262.393 310.999 265.957L498.629 433.755C505.472 439.875 501.143 451.209 491.963 451.209H331.249C338.601 448.819 341.578 439.061 335.569 433.003L227.309 323.872C223.006 319.535 215.993 319.535 211.691 323.872L103.43 433.003C97.4213 439.061 100.399 448.819 107.751 451.209H30.0201C20.8397 451.209 16.5108 439.875 23.3539 433.755L211.408 265.578C215.423 261.988 221.514 262.302 225.799 265.564C235.825 273.196 248.141 277.694 261.453 277.694C274.582 277.694 286.741 273.32 296.691 265.878Z" fill="white"/>
<circle cx="261.5" cy="228.5" r="32.5" fill="white"/>
</svg>
