<svg width="1516" height="479" viewBox="0 0 1516 479" fill="none" xmlns="http://www.w3.org/2000/svg">
<circle cx="261.5" cy="239.5" r="32.5" fill="black"/>
<path fill-rule="evenodd" clip-rule="evenodd" d="M296.691 276.878C300.973 273.675 307.013 273.393 310.999 276.957L498.629 444.755C505.472 450.875 501.143 462.209 491.963 462.209H331.248C338.601 459.82 341.578 450.061 335.569 444.003L227.309 334.872C223.006 330.535 215.993 330.535 211.69 334.872L103.43 444.003C97.4212 450.061 100.399 459.82 107.751 462.209H30.02C20.8397 462.209 16.5108 450.875 23.3538 444.755L211.408 276.578C215.423 272.988 221.514 273.302 225.799 276.564C235.825 284.196 248.14 288.694 261.453 288.694C274.582 288.694 286.741 284.32 296.691 276.878Z" fill="black"/>
<path fill-rule="evenodd" clip-rule="evenodd" d="M301.691 138.128C305.994 142.465 313.006 142.465 317.309 138.128L425.57 28.997C431.417 23.1029 428.755 13.7039 421.833 11H512.391C521.7 11 525.959 22.6023 518.861 28.625L314.085 202.381C310.132 205.735 304.315 205.44 300.162 202.338C289.156 194.117 275.499 189.25 260.706 189.25C246.113 189.25 232.627 193.986 221.7 202.004C217.551 205.049 211.783 205.314 207.859 201.985L3.55006 28.625C-3.54788 22.6023 0.711239 11 10.02 11H197.167C190.245 13.7039 187.583 23.1029 193.43 28.997L301.691 138.128Z" fill="black"/>
<path d="M826.304 167.7C826.304 169.064 826.552 169.994 827.048 170.49C827.668 170.986 828.908 171.42 830.768 171.792L837.65 173.28V177H777.014V173.28L783.896 171.792C785.756 171.42 786.934 170.986 787.43 170.49C788.05 169.994 788.36 169.064 788.36 167.7V52.008H784.082C776.518 52.008 770.628 53.248 766.412 55.728C762.32 58.208 759.158 61.432 756.926 65.4C754.818 69.368 752.152 75.692 748.928 84.372H744.836V46.8H869.828V84.372H865.736C862.512 75.692 859.784 69.368 857.552 65.4C855.444 61.432 852.282 58.208 848.066 55.728C843.974 53.248 838.146 52.008 830.582 52.008H826.304V167.7ZM957.924 134.034C956.932 127.958 955.754 123.742 954.39 121.386C953.15 118.906 951.104 117.294 948.252 116.55C945.4 115.682 940.688 115.248 934.116 115.248H928.722V167.514C928.722 168.878 928.97 169.808 929.466 170.304C930.086 170.8 931.326 171.234 933.186 171.606L941.184 173.28V177H879.432V173.28L886.314 171.792C888.174 171.42 889.352 170.986 889.848 170.49C890.468 169.994 890.778 169.064 890.778 167.7V56.1C890.778 54.736 890.468 53.806 889.848 53.31C889.352 52.814 888.174 52.38 886.314 52.008L879.432 50.52V46.8H934.116C950.732 46.8 963.938 47.916 973.734 50.148C983.53 52.256 990.66 55.79 995.124 60.75C999.588 65.71 1001.82 72.468 1001.82 81.024C1001.82 90.572 998.968 97.95 993.264 103.158C987.56 108.242 978.322 111.714 965.55 113.574C972.866 114.07 978.694 115.248 983.034 117.108C987.498 118.968 990.97 121.944 993.45 126.036C995.93 130.004 997.852 135.522 999.216 142.59L1001.26 153.75C1002.25 159.082 1002.94 162.678 1003.31 164.538C1003.8 166.398 1004.42 167.824 1005.17 168.816C1006.04 169.808 1007.34 170.304 1009.07 170.304C1012.17 170.304 1014.78 168.01 1016.89 163.422L1020.79 166.77C1019.06 170.366 1016.39 173.28 1012.79 175.512C1009.32 177.744 1003.62 178.86 995.682 178.86C987.746 178.86 981.484 177.992 976.896 176.256C972.308 174.52 968.712 171.482 966.108 167.142C963.504 162.678 961.52 156.292 960.156 147.984L957.924 134.034ZM928.722 109.668H935.79C942.982 109.668 948.5 108.676 952.344 106.692C956.312 104.708 959.04 101.67 960.528 97.578C962.016 93.486 962.76 87.968 962.76 81.024C962.76 74.08 962.016 68.562 960.528 64.47C959.04 60.378 956.312 57.34 952.344 55.356C948.5 53.372 942.982 52.38 935.79 52.38H928.722V109.668ZM1148.18 128.64C1147.93 144.264 1143.72 156.602 1135.53 165.654C1127.35 174.706 1114.14 179.232 1095.92 179.232C1076.08 179.232 1061.38 175.202 1051.83 167.142C1042.41 159.082 1037.7 146 1037.7 127.896V56.1C1037.7 54.736 1037.39 53.806 1036.77 53.31C1036.27 52.814 1035.09 52.38 1033.23 52.008L1026.35 50.52V46.8H1086.62V50.52L1079.92 52.008C1078.18 52.38 1077.01 52.814 1076.39 53.31C1075.89 53.682 1075.64 54.55 1075.64 55.914V131.244C1075.64 141.784 1076.39 149.968 1077.87 155.796C1079.36 161.624 1082.21 165.964 1086.43 168.816C1090.77 171.544 1097.09 172.908 1105.4 172.908C1117.31 172.908 1126.42 169.002 1132.74 161.19C1139.07 153.378 1142.23 143.024 1142.23 130.128V56.1C1142.23 54.736 1141.92 53.806 1141.3 53.31C1140.8 52.814 1139.63 52.38 1137.77 52.008L1130.88 50.52V46.8H1159.16V50.52L1152.46 52.008C1150.72 52.38 1149.55 52.814 1148.93 53.31C1148.43 53.682 1148.18 54.55 1148.18 55.914V128.64ZM1174.58 171.792C1176.44 171.42 1177.62 170.986 1178.11 170.49C1178.73 169.994 1179.04 169.064 1179.04 167.7V56.1C1179.04 54.736 1178.73 53.806 1178.11 53.31C1177.62 52.814 1176.44 52.38 1174.58 52.008L1167.7 50.52V46.8H1282.27V83.07H1277.62C1275.02 75.01 1272.54 68.934 1270.18 64.842C1267.95 60.75 1264.79 57.65 1260.7 55.542C1256.6 53.434 1250.84 52.38 1243.4 52.38H1216.99V107.622H1264.97V113.202H1216.99V171.42H1245.26C1252.57 171.42 1258.34 170.304 1262.56 168.072C1266.77 165.84 1270.06 162.616 1272.41 158.4C1274.89 154.184 1277.44 148.046 1280.04 139.986H1284.88V177H1167.7V173.28L1174.58 171.792Z" fill="black"/>
<path d="M601.422 349.486C603.53 350.354 605.328 351.532 606.816 353.02C608.428 354.508 610.102 356.492 611.838 358.972L652.572 423.886C653.564 425.374 654.432 426.428 655.176 427.048C655.92 427.544 656.974 427.854 658.338 427.978L666.336 429.28V433H627.09C623.742 433 621.138 432.504 619.278 431.512C617.418 430.396 615.806 428.784 614.442 426.676L579.66 368.272L576.126 371.434V423.886C576.126 425.25 576.374 426.18 576.87 426.676C577.49 427.048 578.668 427.42 580.404 427.792L587.1 429.28V433H526.836V429.28L533.718 427.792C535.578 427.42 536.756 426.986 537.252 426.49C537.872 425.994 538.182 425.064 538.182 423.7V312.1C538.182 310.736 537.872 309.806 537.252 309.31C536.756 308.814 535.578 308.38 533.718 308.008L526.836 306.52V302.8H587.1V306.52L580.404 308.008C578.668 308.256 577.49 308.628 576.87 309.124C576.374 309.62 576.126 310.55 576.126 311.914V364.738L637.506 311.542C638.498 310.674 638.994 309.744 638.994 308.752C638.994 307.884 638.312 307.326 636.948 307.078L628.95 306.334V302.8H662.244V306.52L654.432 307.078C652.324 307.202 650.65 307.636 649.41 308.38C648.294 309 646.806 310.116 644.946 311.728L601.422 349.486ZM685.51 312.1C685.51 310.736 685.2 309.806 684.58 309.31C684.084 308.814 682.906 308.38 681.046 308.008L674.164 306.52V302.8H734.8V306.52L727.918 308.008C726.058 308.38 724.818 308.814 724.198 309.31C723.702 309.806 723.454 310.736 723.454 312.1V423.7C723.454 425.064 723.702 425.994 724.198 426.49C724.818 426.986 726.058 427.42 727.918 427.792L734.8 429.28V433H674.164V429.28L681.046 427.792C682.906 427.42 684.084 426.986 684.58 426.49C685.2 425.994 685.51 425.064 685.51 423.7V312.1ZM756.514 312.1C756.514 310.736 756.204 309.806 755.584 309.31C755.088 308.814 753.91 308.38 752.05 308.008L745.168 306.52V302.8H796.69L856.582 378.316V311.914C856.582 310.55 856.272 309.682 855.652 309.31C855.156 308.814 854.04 308.38 852.304 308.008L845.608 306.52V302.8H873.88V306.52L866.998 308.008C865.138 308.38 863.898 308.814 863.278 309.31C862.782 309.806 862.534 310.736 862.534 312.1V433H855.838L762.466 314.89V423.886C762.466 425.25 762.714 426.18 763.21 426.676C763.83 427.048 765.008 427.42 766.744 427.792L773.44 429.28V433H745.168V429.28L752.05 427.792C753.91 427.42 755.088 426.986 755.584 426.49C756.204 425.994 756.514 425.064 756.514 423.7V312.1ZM930.078 361.204C930.078 377.076 931.504 389.848 934.356 399.52C937.208 409.068 941.858 416.074 948.306 420.538C954.878 425.002 963.682 427.234 974.718 427.234H980.67V381.478H962.256V375.898H1013.03V424.816C1010.31 425.312 1007.02 426.056 1003.18 427.048C999.456 427.916 996.604 428.598 994.62 429.094C986.436 431.202 979.864 432.752 974.904 433.744C970.068 434.736 965.542 435.232 961.326 435.232C948.058 435.232 936.03 433 925.242 428.536C914.454 423.948 905.712 416.508 899.016 406.216C892.444 395.924 889.158 382.532 889.158 366.04C889.158 343.596 895.916 327.104 909.432 316.564C922.948 305.9 940.742 300.568 962.814 300.568C971.99 300.568 980.856 301.374 989.412 302.986C998.092 304.598 1004.85 306.582 1009.69 308.938L1007.08 340.93H1001.87C998.402 330.39 993.628 321.958 987.552 315.634C981.6 309.186 973.416 305.962 963 305.962C951.22 305.962 942.788 310.612 937.704 319.912C932.62 329.088 930.078 342.852 930.078 361.204ZM1037.41 427.792C1039.27 427.42 1040.45 426.986 1040.94 426.49C1041.56 425.994 1041.87 425.064 1041.87 423.7V312.1C1041.87 310.736 1041.56 309.806 1040.94 309.31C1040.45 308.814 1039.27 308.38 1037.41 308.008L1030.53 306.52V302.8H1087.44C1113.48 302.8 1133.32 307.698 1146.96 317.494C1160.6 327.29 1167.42 344.092 1167.42 367.9C1167.42 391.708 1160.6 408.51 1146.96 418.306C1133.32 428.102 1113.48 433 1087.44 433H1030.53V429.28L1037.41 427.792ZM1079.82 427.42H1087.44C1097.73 427.42 1105.67 425.622 1111.25 422.026C1116.83 418.306 1120.74 412.23 1122.97 403.798C1125.2 395.366 1126.32 383.4 1126.32 367.9C1126.32 352.4 1125.2 340.434 1122.97 332.002C1120.74 323.57 1116.83 317.556 1111.25 313.96C1105.67 310.24 1097.73 308.38 1087.44 308.38H1079.82V427.42ZM1257.33 300.568C1278.28 300.568 1295.02 305.9 1307.55 316.564C1320.07 327.104 1326.33 344.216 1326.33 367.9C1326.33 391.584 1320.07 408.758 1307.55 419.422C1295.02 429.962 1278.28 435.232 1257.33 435.232C1236.37 435.232 1219.63 429.962 1207.11 419.422C1194.58 408.758 1188.32 391.584 1188.32 367.9C1188.32 344.34 1194.58 327.228 1207.11 316.564C1219.75 305.9 1236.49 300.568 1257.33 300.568ZM1257.33 429.838C1264.89 429.838 1270.66 427.792 1274.62 423.7C1278.72 419.608 1281.51 413.16 1282.99 404.356C1284.48 395.552 1285.23 383.4 1285.23 367.9C1285.23 352.4 1284.48 340.248 1282.99 331.444C1281.51 322.64 1278.72 316.192 1274.62 312.1C1270.66 308.008 1264.89 305.962 1257.33 305.962C1249.76 305.962 1243.93 308.008 1239.84 312.1C1235.87 316.192 1233.15 322.64 1231.66 331.444C1230.17 340.248 1229.43 352.4 1229.43 367.9C1229.43 383.4 1230.17 395.552 1231.66 404.356C1233.15 413.16 1235.87 419.608 1239.84 423.7C1243.93 427.792 1249.76 429.838 1257.33 429.838ZM1358.79 423.886C1358.79 425.25 1359.04 426.18 1359.54 426.676C1360.16 427.048 1361.33 427.42 1363.07 427.792L1369.77 429.28V433H1341.49V429.28L1348.38 427.792C1350.24 427.42 1351.41 426.986 1351.91 426.49C1352.53 425.994 1352.84 425.064 1352.84 423.7V312.1C1352.84 310.736 1352.53 309.806 1351.91 309.31C1351.41 308.814 1350.24 308.38 1348.38 308.008L1341.49 306.52V302.8H1389.11L1427.43 385.57L1461.65 302.8H1510.75V306.52L1503.87 308.008C1502.01 308.38 1500.77 308.814 1500.15 309.31C1499.66 309.806 1499.41 310.736 1499.41 312.1V423.7C1499.41 425.064 1499.66 425.994 1500.15 426.49C1500.77 426.986 1502.01 427.42 1503.87 427.792L1510.75 429.28V433H1450.49V429.28L1457.19 427.792C1458.92 427.42 1460.04 427.048 1460.53 426.676C1461.15 426.18 1461.46 425.25 1461.46 423.886V318.61L1414.22 433H1408.64L1358.79 323.446V423.886Z" fill="black"/>
</svg>
