<svg width="25" height="24" viewBox="0 0 25 24" fill="none" xmlns="http://www.w3.org/2000/svg">
<path d="M22.8325 6C22.0551 6.35 21.2171 6.58 20.3488 6.69C21.2373 6.16 21.9238 5.32 22.2469 4.31C21.4089 4.81 20.48 5.16 19.5006 5.36C18.703 4.5 17.5823 4 16.3101 4C13.9373 4 11.9988 5.92 11.9988 8.29C11.9988 8.63 12.0392 8.96 12.1098 9.27C8.5154 9.09 5.31474 7.38 3.18433 4.79C2.81075 5.42 2.59872 6.16 2.59872 6.94C2.59872 8.43 3.35597 9.75 4.52719 10.5C3.81032 10.5 3.14394 10.3 2.55833 10V10.03C2.55833 12.11 4.05264 13.85 6.0316 14.24C5.39624 14.4122 4.72922 14.4362 4.08294 14.31C4.35717 15.1625 4.89424 15.9084 5.61866 16.4429C6.34308 16.9775 7.21842 17.2737 8.12162 17.29C6.59059 18.4904 4.69277 19.1393 2.74007 19.13C2.39678 19.13 2.05349 19.11 1.71021 19.07C3.62858 20.29 5.91044 21 8.35385 21C16.3101 21 20.6819 14.46 20.6819 8.79C20.6819 8.6 20.6819 8.42 20.6719 8.23C21.52 7.63 22.2469 6.87 22.8325 6Z" fill="white"/>
</svg>
