<svg width="21" height="20" viewBox="0 0 21 20" fill="none" xmlns="http://www.w3.org/2000/svg">
<path d="M17.7841 2.91006C16.8584 1.98399 15.7558 1.24973 14.5406 0.750111C13.3254 0.250494 12.022 -0.00448012 10.7063 5.95696e-05C5.19344 5.95696e-05 0.700403 4.45006 0.700403 9.91006C0.700403 11.6601 1.16485 13.3601 2.03317 14.8601L0.619629 20.0001L5.92041 18.6201C7.38443 19.4101 9.0302 19.8301 10.7063 19.8301C16.2191 19.8301 20.7121 15.3801 20.7121 9.92006C20.7121 7.27006 19.6721 4.78006 17.7841 2.91006V2.91006ZM10.7063 18.1501C9.21194 18.1501 7.74792 17.7501 6.46563 17.0001L6.16273 16.8201L3.01255 17.6401L3.85058 14.6001L3.64865 14.2901C2.81844 12.977 2.37761 11.4593 2.37646 9.91006C2.37646 5.37006 6.11225 1.67006 10.6962 1.67006C12.9174 1.67006 15.0075 2.53006 16.5725 4.09006C17.3474 4.85402 17.9615 5.76272 18.3792 6.76348C18.7969 7.76425 19.0098 8.83717 19.0058 9.92006C19.026 14.4601 15.2902 18.1501 10.7063 18.1501V18.1501ZM15.27 11.9901C15.0176 11.8701 13.7858 11.2701 13.5636 11.1801C13.3314 11.1001 13.1699 11.0601 12.9982 11.3001C12.8266 11.5501 12.352 12.1101 12.2107 12.2701C12.0693 12.4401 11.9179 12.4601 11.6654 12.3301C11.413 12.2101 10.6053 11.9401 9.6562 11.1001C8.90904 10.4401 8.4143 9.63006 8.26285 9.38006C8.12149 9.13006 8.24265 9.00006 8.37391 8.87006C8.48498 8.76006 8.62633 8.58006 8.74749 8.44006C8.86865 8.30006 8.91914 8.19006 8.99991 8.03006C9.08068 7.86006 9.0403 7.72006 8.97972 7.60006C8.91914 7.48006 8.4143 6.26006 8.21236 5.76006C8.01043 5.28006 7.7984 5.34006 7.64695 5.33006H7.16231C6.99066 5.33006 6.72815 5.39006 6.49592 5.64006C6.27379 5.89006 5.6276 6.49006 5.6276 7.71006C5.6276 8.93006 6.52621 10.1101 6.64737 10.2701C6.76853 10.4401 8.4143 12.9401 10.9183 14.0101C11.514 14.2701 11.9784 14.4201 12.3419 14.5301C12.9376 14.7201 13.4829 14.6901 13.917 14.6301C14.4017 14.5601 15.4012 14.0301 15.6032 13.4501C15.8152 12.8701 15.8152 12.3801 15.7445 12.2701C15.6738 12.1601 15.5224 12.1101 15.27 11.9901V11.9901Z" fill="black"/>
</svg>
